# xmcd
#
# Track frame offsets: 
#        187
#        12470
#        27277
#        40840
#        52405
#        63325
#        75642
#        89400
#        103690
#        117337
#        130762
#        149272
#        166992
#        182180
#        196077
#        213300
#
# Disc length: 3035 seconds
#
# Revision: 1
# Processed by: cddbd v1.5.1PL2 Copyright (c) Steve Scherf et al.
# Submitted via: ExactAudioCopy v0.95b3
#
DISCID=e10bd910
DTITLE=hellen merril - hellen merril
DYEAR=1900
DGENRE=Jazz
TTITLE0=you'd be so nice to come home to
TTITLE1=summertime in venice
TTITLE2=fly my to the moon
TTITLE3=autumn leaves
TTITLE4=my funny valentine
TTITLE5=pennies from heaven
TTITLE6=the boy from ipanema
TTITLE7=mack the knife
TTITLE8=romance
TTITLE9=plaisir d'amor
TTITLE10=yeah lei shang
TTITLE11=september song
TTITLE12=no other love
TTITLE13=la chanson d'orphee
TTITLE14=charade
TTITLE15=goodbye
EXTD=
EXTT0=
EXTT1=
EXTT2=
EXTT3=
EXTT4=
EXTT5=
EXTT6=
EXTT7=
EXTT8=
EXTT9=
EXTT10=
EXTT11=
EXTT12=
EXTT13=
EXTT14=
EXTT15=
PLAYORDER=
